<?xml version="1.0" encoding="utf-8"?>
<!-- Generator: Adobe Illustrator 21.1.0, SVG Export Plug-In . SVG Version: 6.00 Build 0)  -->
<svg version="1.1" id="Layer_1" xmlns="http://www.w3.org/2000/svg" xmlns:xlink="http://www.w3.org/1999/xlink" x="0px" y="0px"
	 viewBox="0 0 21 21" style="enable-background:new 0 0 21 21;" xml:space="preserve">
<style type="text/css">
	.st0{clip-path:url(#SVGID_2_);}
</style>
<g id="search-glass">
	<defs>
		<rect id="SVGID_1_" width="21" height="21"/>
	</defs>
	<clipPath id="SVGID_2_">
		<use xlink:href="#SVGID_1_"  style="overflow:visible;"/>
	</clipPath>
	<g id="Ellipse_1" class="st0">
		<g>
			<path d="M8.5,1C12.6,1,16,4.4,16,8.5c0,1.8-0.6,3.5-1.8,4.8l-0.4,0.5l-0.5,0.4C12,15.4,10.3,16,8.5,16C4.4,16,1,12.6,1,8.5
				C1,4.4,4.4,1,8.5,1 M8.5,0C3.8,0,0,3.8,0,8.5C0,13.2,3.8,17,8.5,17c2.1,0,4-0.7,5.5-2l5.5,5.5l1.1-1.1L15,14c1.2-1.5,2-3.4,2-5.5
				C17,3.8,13.2,0,8.5,0L8.5,0z"/>
		</g>
	</g>
</g>
</svg>
